<svg id="visual" viewBox="0 0 1920 1080" width="1920" height="1080" xmlns="http://www.w3.org/2000/svg" xmlns:xlink="http://www.w3.org/1999/xlink" version="1.1"><rect x="0" y="0" width="1920" height="1080" fill="#FCFCFC"></rect><path d="M0 181L40 176.2C80 171.3 160 161.7 240 151.3C320 141 400 130 480 122.3C560 114.7 640 110.3 720 105.7C800 101 880 96 960 106.7C1040 117.3 1120 143.7 1200 163.3C1280 183 1360 196 1440 195.8C1520 195.7 1600 182.3 1680 175C1760 167.7 1840 166.3 1880 165.7L1920 165L1920 0L1880 0C1840 0 1760 0 1680 0C1600 0 1520 0 1440 0C1360 0 1280 0 1200 0C1120 0 1040 0 960 0C880 0 800 0 720 0C640 0 560 0 480 0C400 0 320 0 240 0C160 0 80 0 40 0L0 0Z" fill="#FF5217" stroke-linecap="round" stroke-linejoin="miter"></path></svg>